<svg width="124" height="124" viewBox="0 0 124 124" fill="none" xmlns="http://www.w3.org/2000/svg">
<path d="M0 62.0001C0 27.7584 27.7584 0 62.0001 0C96.2418 0 124 27.7584 124 62.0001V124H0V62.0001Z" fill="#F3AFA8"/>
<path d="M32.1685 98.0559L38.7668 98.0559L38.7668 91.2278L32.1685 91.2278L32.1685 98.0559ZM87.1019 42.0452C87.1019 41.5834 86.7401 41.209 86.2938 41.209L79.0207 41.209C78.5744 41.209 78.2126 41.5834 78.2126 42.0452C78.2126 42.5071 78.5744 42.8815 79.0207 42.8815L85.4857 42.8815L85.4857 49.5716C85.4857 50.0335 85.8475 50.4079 86.2938 50.4079C86.7401 50.4079 87.1019 50.0335 87.1019 49.5716L87.1019 42.0452ZM36.0391 95.2332L86.8652 42.6366L85.7223 41.4539L34.8962 94.0505L36.0391 95.2332Z" fill="#2D2D2D"/>
</svg>
